# xmcd
#
# Track frame offsets:
#	150
#	14303
#	34149
#	51350
#	67394
#	84529
#	101550
#	114915
#	126578
#	142594
#	156791
#	176658
#	193888
#	209790
#	226826
#	243847
#	258906
#	270306
#
# Disc length: 3816
#
# Revision: 1
# Processed by: cddbd v1.5.2PL0 Copyright (c) Steve Scherf et al.
# Submitted via: kJams Pro (development) 1.0patch46
#
DISCID=000ee612
DTITLE=Various  - Northstar Country 3076
DYEAR=2006
DGENRE=Vocal
TTITLE0=Kenny Chesney - Summertime
TTITLE1=Garth Brooks - That Girl Is A Cowboy
TTITLE2=Josh Turner - Would You Go With Me
TTITLE3=Miranda Lambert - New Strings
TTITLE4=Mark Hackley - How About You
TTITLE5=Sara Evans - Coal Mine
TTITLE6=Jake Owen - YeeHaw
TTITLE7=Jamie Johnson - Rebelicious
TTITLE8=The Wreckers - Leave The Pieces
TTITLE9=Kenny Chesney  - Summertime (Vocal)
TTITLE10=Garth Brooks - That Girl Is A Cowboy (Vocal)
TTITLE11=Josh Turner - Would You Go With Me (Vocal)
TTITLE12=Miranda Lambert - New Strings (Vocal)
TTITLE13=Mark Hackley - How About You (Vocal)
TTITLE14=Sara Evans - Coal Mine (Vocal)
TTITLE15=Jake Owen - YeeHaw (Vocal)
TTITLE16=Jamie Johnson - Rebelicious (Vocal)
TTITLE17=The Wreckers - Leave The Pieces (Vocal)
EXTD=
EXTT0=
EXTT1=
EXTT2=
EXTT3=
EXTT4=
EXTT5=
EXTT6=
EXTT7=
EXTT8=
EXTT9=
EXTT10=
EXTT11=
EXTT12=
EXTT13=
EXTT14=
EXTT15=
EXTT16=
EXTT17=
PLAYORDER=
